<svg preserveAspectRatio="xMidYMid meet" data-bbox="40 20 120 160" viewBox="40 20 120 160" height="200" width="200" xmlns="http://www.w3.org/2000/svg" data-type="color" role="img" aria-labelledby="svgcid-aftclncg72p6"><defs><style>#comp-l8tvyavz svg [data-color="1"] {fill: #4793A3;}</style></defs><title id="svgcid-aftclncg72p6">Laundry Hotels</title>
    <g>
        <path d="M151.996 166.668h5.336a2.67 2.67 0 0 1 2.668 2.66v8.004c0 1.44-1.227 2.668-2.668 2.668H42.668C41.22 180 40 178.802 40 177.332v-8.004a2.67 2.67 0 0 1 2.668-2.66h5.336v-144A2.67 2.67 0 0 1 50.664 20h98.665a2.672 2.672 0 0 1 2.668 2.668v144zM74.667 33.332v13.332H61.335V33.332h13.332zm50.666 0v13.332h13.331V33.332h-13.331zm-8.003 0v13.332h-13.332V33.332h13.332zm-34.66 0v13.332h13.331V33.332H82.67zM74.667 68V54.668H61.335V68h13.332zm50.666 0V54.668h13.331V68h-13.331zm-8.003 0V54.668h-13.332V68h13.332zm-34.66 0V54.668h13.331V68H82.67zm-8.003 7.996v13.332H61.335V75.996h13.332zm50.666 0v13.332h13.331V75.996h-13.331zm-8.003 0v13.332h-13.332V75.996h13.332zm-34.66 0v13.332h13.331V75.996H82.67zm-8.003 34.668V97.332H61.335v13.332h13.332zm50.666 0V97.332h13.331v13.332h-13.331zm-8.003 0V97.332h-13.332v13.332h13.332zm-34.66 0V97.332h13.331v13.332H82.67zm-8.003 8.004V132H61.335v-13.332h13.332zm50.666 0V132h13.331v-13.332h-13.331zm-8.003 0V132h-13.332v-13.332h13.332zm-34.66 0V132h13.331v-13.332H82.67zm34.66 48v-26.672h-13.332v26.672h13.332zm-34.66 0v-26.672h13.331v26.672H82.67z" fill="#A1763B" clip-rule="evenodd" fill-rule="evenodd" data-color="1"></path>
    </g>
</svg>