<svg
          preserveAspectRatio="xMidYMid meet"
          data-bbox="19.999 19.999 160.062 160.001"
          viewBox="19.999 19.999 160.062 160.001"
          height="200"
          width="200"
          xmlns="http://www.w3.org/2000/svg"
          data-type="color"
          role="img"
          aria-labelledby="svgcid-j4hxywj5wdli"
        >
          <defs>
            <style>#comp-l8tvylq3 svg [data-color="1"] {fill: #90C4CF}</style>
          </defs>
          <title id="svgcid-j4hxywj5wdli">Laundry Guest Houses</title>
          <g>
            <path
              d="M23.81 129.206a3.808 3.808 0 0 1-2.693-6.503l40.635-40.635a3.808 3.808 0 1 1 5.387 5.387L26.503 128.09a3.796 3.796 0 0 1-2.693 1.116z"
              fill="#112F5B"
              data-color="1"
            ></path>
            <path
              d="M105.079 129.206a3.796 3.796 0 0 1-2.693-1.116L61.751 87.455a3.808 3.808 0 1 1 5.387-5.387l40.635 40.635a3.808 3.808 0 0 1-2.694 6.503z"
              fill="#112F5B"
              data-color="1"
            ></path>
            <path
              d="M23.81 180a3.81 3.81 0 0 1-3.81-3.81v-50.794a3.81 3.81 0 1 1 7.62 0v50.794a3.81 3.81 0 0 1-3.81 3.81z"
              fill="#112F5B"
              data-color="1"
            ></path>
            <path
              d="M105.079 180a3.81 3.81 0 0 1-3.81-3.81v-50.794a3.81 3.81 0 1 1 7.62 0v50.794a3.809 3.809 0 0 1-3.81 3.81z"
              fill="#112F5B"
              data-color="1"
            ></path>
            <path
              d="M176.19 180H23.81a3.81 3.81 0 1 1 0-7.62h152.38a3.81 3.81 0 1 1 0 7.62z"
              fill="#112F5B"
              data-color="1"
            ></path>
            <path
              d="M74.603 98.73a3.81 3.81 0 0 1-3.81-3.81V23.81a3.81 3.81 0 1 1 7.62 0v71.111a3.81 3.81 0 0 1-3.81 3.809z"
              fill="#112F5B"
              data-color="1"
            ></path>
            <path
              d="M176.19 180a3.81 3.81 0 0 1-3.81-3.81V23.81a3.81 3.81 0 1 1 7.62 0v152.38a3.809 3.809 0 0 1-3.81 3.81z"
              fill="#112F5B"
              data-color="1"
            ></path>
            <path
              d="M176.19 27.619H74.603a3.81 3.81 0 1 1 0-7.619H176.19a3.81 3.81 0 1 1 0 7.619z"
              fill="#112F5B"
              data-color="1"
            ></path>
            <path
              d="M115.238 68.254H94.921a3.81 3.81 0 0 1-3.81-3.81V44.127a3.81 3.81 0 0 1 3.81-3.81h20.317a3.81 3.81 0 0 1 3.81 3.81v20.317a3.81 3.81 0 0 1-3.81 3.81zM98.73 60.635h12.698V47.937H98.73v12.698z"
              fill="#112F5B"
              data-color="1"
            ></path>
            <path
              d="M155.873 68.254h-20.317a3.81 3.81 0 0 1-3.81-3.81V44.127a3.81 3.81 0 0 1 3.81-3.81h20.317a3.81 3.81 0 0 1 3.81 3.81v20.317a3.81 3.81 0 0 1-3.81 3.81zm-16.508-7.619h12.698V47.937h-12.698v12.698z"
              fill="#112F5B"
              data-color="1"
            ></path>
            <path
              d="M74.603 159.683H54.286a3.81 3.81 0 0 1-3.81-3.81v-20.317a3.81 3.81 0 0 1 3.81-3.81h20.317a3.81 3.81 0 0 1 3.81 3.81v20.317a3.81 3.81 0 0 1-3.81 3.81zm-16.508-7.62h12.698v-12.698H58.095v12.698z"
              fill="#112F5B"
              data-color="1"
            ></path>
            <path
              d="M115.238 108.889H94.921a3.81 3.81 0 0 1-3.81-3.81V84.762a3.81 3.81 0 0 1 3.81-3.81h20.317a3.81 3.81 0 0 1 3.81 3.81v20.317a3.81 3.81 0 0 1-3.81 3.81zM98.73 101.27h12.698V88.571H98.73v12.699z"
              fill="#112F5B"
              data-color="1"
            ></path>
            <path
              d="M155.873 108.889h-20.317a3.81 3.81 0 0 1-3.81-3.81V84.762a3.81 3.81 0 0 1 3.81-3.81h20.317a3.81 3.81 0 0 1 3.81 3.81v20.317a3.81 3.81 0 0 1-3.81 3.81zm-16.508-7.619h12.698V88.571h-12.698v12.699z"
              fill="#112F5B"
              data-color="1"
            ></path>
            <path
              d="M155.873 149.524h-20.317a3.81 3.81 0 0 1-3.81-3.81v-20.317a3.81 3.81 0 0 1 3.81-3.81h20.317a3.81 3.81 0 0 1 3.81 3.81v20.317a3.81 3.81 0 0 1-3.81 3.81zm-16.508-7.619h12.698v-12.698h-12.698v12.698z"
              fill="#112F5B"
              data-color="1"
            ></path>
          </g>
        </svg>